<?xml version="1.0" encoding="UTF-8" standalone="no"?>
<svg
   width="512"
   height="512"
   version="1.1"
   viewBox="0 0 135.46535 135.46732"
   id="svg2"
   sodipodi:docname="logo.svg"
   inkscape:version="1.4.2 (2aeb623e1d, 2025-05-12)"
   xmlns:inkscape="http://www.inkscape.org/namespaces/inkscape"
   xmlns:sodipodi="http://sodipodi.sourceforge.net/DTD/sodipodi-0.dtd"
   xmlns="http://www.w3.org/2000/svg"
   xmlns:svg="http://www.w3.org/2000/svg">
  <defs
     id="defs2" />
  <sodipodi:namedview
     id="namedview2"
     pagecolor="#ffffff"
     bordercolor="#000000"
     borderopacity="0.25"
     inkscape:showpageshadow="2"
     inkscape:pageopacity="0.0"
     inkscape:pagecheckerboard="0"
     inkscape:deskcolor="#d1d1d1"
     showgrid="false"
     inkscape:zoom="0.81314942"
     inkscape:cx="250.26151"
     inkscape:cy="519.58471"
     inkscape:window-width="1920"
     inkscape:window-height="1131"
     inkscape:window-x="0"
     inkscape:window-y="0"
     inkscape:window-maximized="1"
     inkscape:current-layer="svg2" />
  <path
     d="m 68.832391,28.287623 c -12.570264,0.03092 -20.655939,5.646985 -25.031421,11.404675 -0.957646,1.260114 -2.335063,3.220272 -2.993914,4.422266 2.876769,-0.231079 7.345339,-0.311068 9.92028,0.513695 3.121276,-3.834149 8.457172,-7.789753 18.12677,-7.813704 8.452383,-0.02079 12.852348,3.88849 15.769514,8.067046 2.887467,-0.722718 6.600213,-1.19055 9.365161,-0.874351 -0.649164,-1.288375 -1.422285,-2.6428 -2.372958,-4.004836 C 87.608006,34.260159 80.144086,28.259771 68.834147,28.287447 Z M 44.272528,46.803455 c -1.567797,0.029 -3.114571,0.196059 -4.667678,0.468301 l 5.32e-4,-0.0032 c -3.31e-4,8.52e-4 -7.98e-4,0.0021 -0.0012,0.0032 -6.694419,1.066008 -12.124254,4.189467 -15.84509,8.533814 -4.005368,4.675981 -5.987615,10.196508 -6.303761,16.216589 2.658501,1.854989 5.412804,3.137084 8.513057,4.273613 -0.04073,-0.397211 -0.08454,-0.793985 -0.10139,-1.19284 -0.217917,-5.168349 1.299552,-10.168831 4.368457,-13.751288 3.068958,-3.582722 7.64126,-6.009436 14.744966,-5.955148 7.117011,0.05438 10.165106,2.201313 12.705451,5.80772 0.572257,0.81224 1.081922,1.752641 1.568543,2.748661 -9.6e-5,9.6e-5 -4.69e-4,-8.5e-5 -5.33e-4,0 8.5e-5,1.5e-4 -9e-5,4.16e-4 0,5.32e-4 1.617561,2.815403 2.399836,5.782173 3.133785,8.897329 7.9e-5,-9.6e-5 4.41e-4,8.6e-5 5.32e-4,0 0.356734,1.232703 0.735279,2.344696 1.090863,3.637861 1.265755,4.603598 2.613581,9.51259 5.033482,14.03284 -1.17e-4,1.01e-4 -4.42e-4,-8.6e-5 -5.33e-4,0 7.5e-5,1.54e-4 -6.3e-5,4.15e-4 0,5.32e-4 1.35038,2.653977 3.099456,4.787909 5.051684,6.656635 4.327848,4.225064 10.492962,7.182464 18.865509,7.500744 8.888286,0.33778 16.145806,-3.34817 20.720876,-8.935115 3.79071,-4.629677 5.63155,-9.981486 6.20583,-15.900975 -2.68874,-1.492912 -4.53792,-2.25576 -8.12773,-3.023293 -0.18201,5.087078 -1.81278,10.028855 -4.67363,13.522961 -3.05619,3.732439 -7.289461,6.063191 -13.799194,5.815703 -6.374518,-0.242272 -10.069807,-1.915238 -12.795902,-4.477032 h -5.32e-4 C 77.410434,89.446915 76.29876,86.910934 75.109008,84.391612 73.788539,81.359324 72.71343,77.912747 71.700804,74.229699 70.972285,71.580086 70.212842,68.843507 69.320714,66.146153 h -5.32e-4 c -0.958657,-2.854628 -2.288386,-5.509137 -3.662717,-8.140494 h 5.32e-4 v -5.32e-4 c -0.342326,-0.567466 -0.615367,-1.164631 -1.001608,-1.712884 -3.25146,-4.6152 -8.472075,-8.12293 -15.589618,-9.128317 -1.637094,-0.279146 -3.225967,-0.388211 -4.793764,-0.359225 z m 48.763131,0.05949 c -2.262201,-9.58e-4 -4.525253,0.142431 -6.791818,0.703026 -7.783366,1.451877 -13.734256,4.910003 -18.738837,8.910635 l 3.942032,7.738658 c 5.550119,-4.857951 11.567006,-8.431093 21.379775,-8.821751 0.397524,-0.01577 0.787118,-0.02153 1.167984,-0.0176 5.712986,0.05897 9.583905,2.310155 12.461155,5.816768 0.52536,0.640382 1.14249,1.82561 1.57131,2.566478 3.62355,-0.03482 6.50495,0.442375 9.80958,1.180651 -1.07554,-3.0911 -2.69352,-6.602343 -4.78812,-9.155462 -4.07201,-4.963386 -10.24282,-8.432157 -17.750491,-8.882426 -0.753904,-0.02217 -1.508078,-0.03882 -2.262198,-0.03914 z M 8.6448926,65.215918 1.1675597,69.309956 c 0,0 3.1829092,5.843379 9.4849123,10.874039 2.360078,1.883571 5.387257,3.532107 8.720096,4.891322 0,0 3.633391,1.530914 5.523507,1.910129 1.889745,0.379211 5.173991,0.578484 5.173991,0.578484 l 0.0032,0.0032 c -7.99e-4,-0.0011 -0.0012,-0.0021 -0.0021,-0.0032 2.955593,0.140168 6.083416,-0.05524 9.4269,-0.820383 9.377935,-2.146174 15.373,-7.005775 20.909282,-12.255183 -0.709466,-2.971933 -1.442191,-6.001453 -2.9458,-8.758949 -5.844976,5.773657 -11.353581,10.755352 -19.866639,12.703323 -4.362283,0.998361 -8.046289,0.799519 -11.321647,0.06227 -1.6e-4,-0.0011 -3.85e-4,-0.0021 -5.32e-4,-0.0032 v 0.0032 C 22.89733,77.914125 20.106889,76.51824 17.387714,74.474201 16.929552,74.145915 16.399731,73.859845 15.971762,73.518312 11.06442,69.601667 8.6455846,65.216019 8.6455846,65.216019 Z m 98.0318874,0.817029 c -2.61103,0.06758 -5.36384,0.392325 -8.348601,1.208807 -10.511591,2.875651 -16.302812,9.471607 -21.516028,15.274005 0.98809,2.843983 2.711245,5.278148 4.641226,7.597085 5.975906,-6.452253 10.248667,-12.21633 19.126833,-14.644907 2.45035,-0.670346 4.67843,-1.024015 6.70879,-1.1311 0.1783,-0.0096 0.35348,-0.01442 0.52559,-0.01655 1.20476,-0.0148 2.26816,0.135416 3.35307,0.260602 4.33386,0.433823 6.5092,1.603403 8.50667,2.833552 0.39014,0.236817 0.85513,0.438256 1.21594,0.685356 4.26382,2.920518 6.12014,6.269697 6.12014,6.269697 l 7.45497,-4.143642 c 0,0 -2.84728,-5.115019 -8.75628,-9.16238 -1.92264,-1.316903 -4.34078,-2.414526 -6.97384,-3.339865 -3.0894,-0.827781 -6.25161,-1.391894 -9.49077,-1.680896 -1.9e-4,0 -3.6e-4,1e-5 -5.3e-4,0 -0.84194,-0.0259 -1.69671,-0.03188 -2.56691,-0.0096 z M 20.529641,88.419174 c 4.585874,8.725422 13.860928,15.849346 26.248105,16.259166 10.864459,0.35911 18.570652,-2.25592 24.502382,-5.966327 -1.670358,-2.014709 -3.345506,-4.020161 -4.554632,-6.938178 -4.4897,2.897419 -10.239619,4.694821 -19.66439,4.383306 -6.342081,-0.209625 -11.626616,-2.772345 -15.056322,-6.096722 -3.966462,0.0951 -7.853621,-0.151532 -11.47493,-1.640713 z"
     color="#000000"
     fill="#55ddff"
     stroke-width="1.06617"
     style="-inkscape-stroke:none;paint-order:stroke fill markers;fill:#cba6f7;fill-opacity:1"
     id="path2" />
</svg>
